<svg id="visual" viewBox="0 0 1519 450" width="1519" height="450" xmlns="http://www.w3.org/2000/svg" xmlns:xlink="http://www.w3.org/1999/xlink" version="1.1"><g stroke-width="1" stroke-linejoin="bevel"><path d="M806.9 298L697.1 155L676.1 288Z" fill="#002764" stroke="#002764"></path><path d="M806.9 298L880.9 141L697.1 155Z" fill="#002354" stroke="#002354"></path><path d="M676.1 288L702.1 450L806.9 298Z" fill="#001d3c" stroke="#001d3c"></path><path d="M834.9 0L672.1 0L697.1 155Z" fill="#00214c" stroke="#00214c"></path><path d="M475.3 126L485.3 328L676.1 288Z" fill="#00286c" stroke="#00286c"></path><path d="M880.9 141L834.9 0L697.1 155Z" fill="#001424" stroke="#001424"></path><path d="M702.1 450L872.9 450L806.9 298Z" fill="#001f44" stroke="#001f44"></path><path d="M1015.7 307L988.7 113L880.9 141Z" fill="#002354" stroke="#002354"></path><path d="M1015.7 307L880.9 141L806.9 298Z" fill="#00214c" stroke="#00214c"></path><path d="M880.9 141L988.7 113L834.9 0Z" fill="#002764" stroke="#002764"></path><path d="M475.3 126L676.1 288L697.1 155Z" fill="#00172c" stroke="#00172c"></path><path d="M676.1 288L526.3 450L702.1 450Z" fill="#00214c" stroke="#00214c"></path><path d="M872.9 450L1015.7 307L806.9 298Z" fill="#002764" stroke="#002764"></path><path d="M672.1 0L475.3 126L697.1 155Z" fill="#00172c" stroke="#00172c"></path><path d="M485.3 328L526.3 450L676.1 288Z" fill="#001d3c" stroke="#001d3c"></path><path d="M872.9 450L981.7 450L1015.7 307Z" fill="#00214c" stroke="#00214c"></path><path d="M672.1 0L495.3 0L475.3 126Z" fill="#00214c" stroke="#00214c"></path><path d="M1189.4 0L1012.7 0L988.7 113Z" fill="#001f44" stroke="#001f44"></path><path d="M988.7 113L1012.7 0L834.9 0Z" fill="#00214c" stroke="#00214c"></path><path d="M378.6 0L354.6 152L475.3 126Z" fill="#00255c" stroke="#00255c"></path><path d="M475.3 126L354.6 152L485.3 328Z" fill="#001f44" stroke="#001f44"></path><path d="M485.3 328L374.6 450L526.3 450Z" fill="#001a34" stroke="#001a34"></path><path d="M354.6 152L326.6 323L485.3 328Z" fill="#00286c" stroke="#00286c"></path><path d="M326.6 323L374.6 450L485.3 328Z" fill="#002764" stroke="#002764"></path><path d="M495.3 0L378.6 0L475.3 126Z" fill="#001f44" stroke="#001f44"></path><path d="M354.6 152L130.8 281L326.6 323Z" fill="#002354" stroke="#002354"></path><path d="M1142.4 450L1188.4 315L1015.7 307Z" fill="#00214c" stroke="#00214c"></path><path d="M1015.7 307L1218.4 129L988.7 113Z" fill="#00101c" stroke="#00101c"></path><path d="M981.7 450L1142.4 450L1015.7 307Z" fill="#002354" stroke="#002354"></path><path d="M1188.4 315L1218.4 129L1015.7 307Z" fill="#001d3c" stroke="#001d3c"></path><path d="M1218.4 129L1189.4 0L988.7 113Z" fill="#001a34" stroke="#001a34"></path><path d="M378.6 0L203.8 0L354.6 152Z" fill="#001f44" stroke="#001f44"></path><path d="M326.6 323L137.8 450L374.6 450Z" fill="#00286c" stroke="#00286c"></path><path d="M1188.4 315L1342.2 123L1218.4 129Z" fill="#00214c" stroke="#00214c"></path><path d="M1218.4 129L1342.2 123L1189.4 0Z" fill="#001f44" stroke="#001f44"></path><path d="M1378.2 330L1342.2 123L1188.4 315Z" fill="#00286c" stroke="#00286c"></path><path d="M1142.4 450L1311.2 450L1188.4 315Z" fill="#00101c" stroke="#00101c"></path><path d="M135.8 124L130.8 281L354.6 152Z" fill="#00286c" stroke="#00286c"></path><path d="M203.8 0L135.8 124L354.6 152Z" fill="#001d3c" stroke="#001d3c"></path><path d="M1311.2 450L1378.2 330L1188.4 315Z" fill="#00214c" stroke="#00214c"></path><path d="M130.8 281L137.8 450L326.6 323Z" fill="#001f44" stroke="#001f44"></path><path d="M1519 152L1380.2 0L1342.2 123Z" fill="#00255c" stroke="#00255c"></path><path d="M1342.2 123L1380.2 0L1189.4 0Z" fill="#00214c" stroke="#00214c"></path><path d="M0 0L0 175L135.8 124Z" fill="#001d3c" stroke="#001d3c"></path><path d="M135.8 124L0 175L130.8 281Z" fill="#001424" stroke="#001424"></path><path d="M130.8 281L0 317L137.8 450Z" fill="#002764" stroke="#002764"></path><path d="M0 175L0 317L130.8 281Z" fill="#001a34" stroke="#001a34"></path><path d="M1519 450L1519 277L1378.2 330Z" fill="#00172c" stroke="#00172c"></path><path d="M1378.2 330L1519 277L1342.2 123Z" fill="#002764" stroke="#002764"></path><path d="M1519 277L1519 152L1342.2 123Z" fill="#001a34" stroke="#001a34"></path><path d="M0 317L0 450L137.8 450Z" fill="#00101c" stroke="#00101c"></path><path d="M203.8 0L0 0L135.8 124Z" fill="#001a34" stroke="#001a34"></path><path d="M1311.2 450L1519 450L1378.2 330Z" fill="#002354" stroke="#002354"></path><path d="M1519 152L1519 0L1380.2 0Z" fill="#00286c" stroke="#00286c"></path></g></svg>